<svg width="158" height="18" viewBox="0 0 158 18" fill="none" xmlns="http://www.w3.org/2000/svg">
<path d="M8.9898 13.1895L7.85183 10.025H3.49482L2.38024 13.1895H0.416077L4.67955 1.74743H6.70607L10.9695 13.1895H8.9898ZM7.36079 8.41935L6.29297 5.31722C6.21503 5.10937 6.10591 4.78201 5.96561 4.33514C5.83051 3.88827 5.73698 3.56091 5.68502 3.35306C5.54472 3.99219 5.33947 4.69108 5.06927 5.44972L4.04042 8.41935H7.36079ZM16.6516 4.41308C17.0205 4.41308 17.3245 4.43906 17.5635 4.49102L17.3842 6.19797C17.1244 6.13562 16.8542 6.10444 16.5736 6.10444C15.841 6.10444 15.246 6.34347 14.7887 6.82152C14.3367 7.29957 14.1106 7.92051 14.1106 8.68435V13.1895H12.279V4.56897H13.7131L13.9548 6.08885H14.0483C14.3341 5.57443 14.7056 5.16653 15.1629 4.86515C15.6253 4.56377 16.1216 4.41308 16.6516 4.41308ZM22.3804 11.8644C22.8273 11.8644 23.2741 11.7943 23.721 11.654V13.0336C23.5184 13.1219 23.2559 13.1946 22.9338 13.2518C22.6168 13.3142 22.2869 13.3453 21.9439 13.3453C20.2084 13.3453 19.3406 12.4308 19.3406 10.6017V5.95635H18.1637V5.14574L19.4264 4.47544L20.0499 2.65157H21.1801V4.56897H23.6353V5.95635H21.1801V10.5706C21.1801 11.0122 21.2892 11.3396 21.5074 11.5527C21.7309 11.7605 22.0219 11.8644 22.3804 11.8644ZM27.283 13.1895H25.4513V4.56897H27.283V13.1895ZM25.3422 2.28524C25.3422 1.95788 25.4306 1.70586 25.6072 1.52919C25.7891 1.35252 26.0463 1.26419 26.3789 1.26419C26.701 1.26419 26.9504 1.35252 27.1271 1.52919C27.309 1.70586 27.3999 1.95788 27.3999 2.28524C27.3999 2.59701 27.309 2.84383 27.1271 3.0257C26.9504 3.20237 26.701 3.2907 26.3789 3.2907C26.0463 3.2907 25.7891 3.20237 25.6072 3.0257C25.4306 2.84383 25.3422 2.59701 25.3422 2.28524ZM34.2355 5.95635H32.131V13.1895H30.2916V5.95635H28.873V5.09898L30.2916 4.53779V3.9766C30.2916 2.95815 30.5306 2.2047 31.0087 1.71626C31.4867 1.22262 32.2168 0.975799 33.1989 0.975799C33.8432 0.975799 34.4771 1.08232 35.1007 1.29536L34.6174 2.68275C34.1654 2.53726 33.7341 2.46451 33.3236 2.46451C32.9079 2.46451 32.6039 2.59441 32.4116 2.85422C32.2246 3.10884 32.131 3.49335 32.131 4.00778V4.56897H34.2355V5.95635ZM37.5325 13.1895H35.7008V4.56897H37.5325V13.1895ZM35.5917 2.28524C35.5917 1.95788 35.68 1.70586 35.8567 1.52919C36.0386 1.35252 36.2958 1.26419 36.6284 1.26419C36.9505 1.26419 37.1999 1.35252 37.3766 1.52919C37.5585 1.70586 37.6494 1.95788 37.6494 2.28524C37.6494 2.59701 37.5585 2.84383 37.3766 3.0257C37.1999 3.20237 36.9505 3.2907 36.6284 3.2907C36.2958 3.2907 36.0386 3.20237 35.8567 3.0257C35.68 2.84383 35.5917 2.59701 35.5917 2.28524ZM43.6432 13.3453C42.339 13.3453 41.3465 12.966 40.6658 12.2074C39.9903 11.4435 39.6525 10.3497 39.6525 8.92598C39.6525 7.47624 40.0059 6.36165 40.7126 5.58222C41.4244 4.8028 42.4507 4.41308 43.7913 4.41308C44.7006 4.41308 45.519 4.58196 46.2465 4.91971L45.6931 6.39283C44.9189 6.09145 44.2797 5.94076 43.7757 5.94076C42.2844 5.94076 41.5388 6.93064 41.5388 8.91039C41.5388 9.87688 41.7232 10.6043 42.0922 11.0928C42.4663 11.576 43.0119 11.8177 43.729 11.8177C44.5448 11.8177 45.3164 11.615 46.0439 11.2097V12.8075C45.7165 12.9998 45.3658 13.1375 44.9916 13.2206C44.6227 13.3038 44.1732 13.3453 43.6432 13.3453ZM49.902 13.1895H48.0704V4.56897H49.902V13.1895ZM47.9613 2.28524C47.9613 1.95788 48.0496 1.70586 48.2263 1.52919C48.4081 1.35252 48.6653 1.26419 48.9979 1.26419C49.3201 1.26419 49.5695 1.35252 49.7461 1.52919C49.928 1.70586 50.0189 1.95788 50.0189 2.28524C50.0189 2.59701 49.928 2.84383 49.7461 3.0257C49.5695 3.20237 49.3201 3.2907 48.9979 3.2907C48.6653 3.2907 48.4081 3.20237 48.2263 3.0257C48.0496 2.84383 47.9613 2.59701 47.9613 2.28524ZM57.9224 13.1895L57.556 11.9891H57.4937C57.078 12.5139 56.6597 12.8725 56.2388 13.0647C55.8179 13.2518 55.2775 13.3453 54.6176 13.3453C53.7706 13.3453 53.1081 13.1167 52.63 12.6594C52.1572 12.2022 51.9208 11.5553 51.9208 10.7187C51.9208 9.83011 52.2507 9.1598 52.9106 8.70774C53.5705 8.25567 54.576 8.00885 55.927 7.96728L57.4157 7.92051V7.46065C57.4157 6.90985 57.2858 6.49935 57.026 6.22915C56.7714 5.95375 56.3739 5.81605 55.8335 5.81605C55.3918 5.81605 54.9683 5.88101 54.563 6.01091C54.1577 6.14082 53.768 6.2941 53.3939 6.47077L52.8015 5.16133C53.2692 4.91711 53.781 4.73265 54.337 4.60794C54.893 4.47803 55.4178 4.41308 55.9114 4.41308C57.0078 4.41308 57.834 4.65211 58.39 5.13016C58.9512 5.60821 59.2318 6.35906 59.2318 7.38271V13.1895H57.9224ZM55.1944 11.9424C55.8595 11.9424 56.3921 11.7579 56.7922 11.389C57.1975 11.0148 57.4001 10.4926 57.4001 9.82232V9.07407L56.2934 9.12083C55.4308 9.15201 54.802 9.2975 54.4071 9.55731C54.0174 9.81193 53.8226 10.2042 53.8226 10.7343C53.8226 11.1188 53.9369 11.4176 54.1655 11.6306C54.3941 11.8384 54.7371 11.9424 55.1944 11.9424ZM63.62 13.1895H61.7883V1.06154H63.62V13.1895ZM70.5881 13.1895V1.7942H72.4509V13.1895H70.5881ZM82.8563 13.1895H81.0168V7.88934C81.0168 7.22422 80.8817 6.72799 80.6115 6.40063C80.3465 6.07327 79.923 5.90959 79.3411 5.90959C78.5668 5.90959 78.0004 6.13822 77.6419 6.59548C77.2834 7.05275 77.1041 7.81919 77.1041 8.8948V13.1895H75.2724V4.56897H76.7066L76.9638 5.69914H77.0573C77.3171 5.28864 77.6861 4.97167 78.1641 4.74824C78.6422 4.5248 79.1722 4.41308 79.7542 4.41308C81.8222 4.41308 82.8563 5.46531 82.8563 7.56977V13.1895ZM88.6163 11.8644C89.0632 11.8644 89.51 11.7943 89.9569 11.654V13.0336C89.7542 13.1219 89.4918 13.1946 89.1697 13.2518C88.8527 13.3142 88.5227 13.3453 88.1798 13.3453C86.4443 13.3453 85.5765 12.4308 85.5765 10.6017V5.95635H84.3996V5.14574L85.6622 4.47544L86.2858 2.65157H87.416V4.56897H89.8712V5.95635H87.416V10.5706C87.416 11.0122 87.5251 11.3396 87.7433 11.5527C87.9668 11.7605 88.2577 11.8644 88.6163 11.8644ZM95.4519 13.3453C94.1113 13.3453 93.0616 12.9556 92.303 12.1762C91.5495 11.3916 91.1728 10.3134 91.1728 8.94156C91.1728 7.5334 91.5235 6.42661 92.225 5.6212C92.9265 4.81579 93.8904 4.41308 95.1167 4.41308C96.2547 4.41308 97.1536 4.75863 97.8135 5.44972C98.4735 6.14082 98.8034 7.09172 98.8034 8.30243V9.29231H93.059C93.085 10.1289 93.311 10.7732 93.7371 11.2253C94.1632 11.6722 94.7634 11.8956 95.5376 11.8956C96.0468 11.8956 96.5197 11.8488 96.9562 11.7553C97.3978 11.6566 97.8707 11.4955 98.3747 11.2721V12.7608C97.9279 12.9738 97.4758 13.1245 97.0185 13.2128C96.5613 13.3012 96.039 13.3453 95.4519 13.3453ZM95.1167 5.80047C94.5347 5.80047 94.0671 5.98493 93.7137 6.35386C93.3656 6.72279 93.1577 7.2606 93.0902 7.96728H97.0029C96.9925 7.2554 96.8211 6.71759 96.4885 6.35386C96.156 5.98493 95.6987 5.80047 95.1167 5.80047ZM102.716 13.1895H100.884V1.06154H102.716V13.1895ZM107.174 13.1895H105.343V1.06154H107.174V13.1895ZM111.633 13.1895H109.801V4.56897H111.633V13.1895ZM109.692 2.28524C109.692 1.95788 109.78 1.70586 109.957 1.52919C110.139 1.35252 110.396 1.26419 110.729 1.26419C111.051 1.26419 111.3 1.35252 111.477 1.52919C111.659 1.70586 111.75 1.95788 111.75 2.28524C111.75 2.59701 111.659 2.84383 111.477 3.0257C111.3 3.20237 111.051 3.2907 110.729 3.2907C110.396 3.2907 110.139 3.20237 109.957 3.0257C109.78 2.84383 109.692 2.59701 109.692 2.28524ZM121.539 4.56897V5.57443L120.066 5.84723C120.201 6.0291 120.313 6.25253 120.401 6.51754C120.49 6.78255 120.534 7.06314 120.534 7.35932C120.534 8.24787 120.227 8.94676 119.614 9.45599C119.001 9.96521 118.157 10.2198 117.081 10.2198C116.806 10.2198 116.556 10.199 116.333 10.1575C115.938 10.4017 115.74 10.6875 115.74 11.0148C115.74 11.2123 115.831 11.3604 116.013 11.4591C116.2 11.5578 116.541 11.6072 117.034 11.6072H118.539C119.489 11.6072 120.212 11.8099 120.705 12.2152C121.199 12.6205 121.446 13.205 121.446 13.9689C121.446 14.9458 121.043 15.6992 120.238 16.2292C119.432 16.7592 118.268 17.0242 116.746 17.0242C115.572 17.0242 114.675 16.8164 114.057 16.4007C113.438 15.985 113.129 15.3926 113.129 14.6236C113.129 14.0936 113.296 13.6467 113.628 13.283C113.966 12.9244 114.436 12.675 115.039 12.5347C114.795 12.4308 114.592 12.2645 114.431 12.0359C114.275 11.8021 114.197 11.5578 114.197 11.3032C114.197 10.9811 114.288 10.7083 114.47 10.4848C114.652 10.2614 114.922 10.0406 115.281 9.82232C114.834 9.63006 114.47 9.31829 114.189 8.887C113.914 8.45052 113.776 7.9413 113.776 7.35932C113.776 6.42401 114.07 5.69914 114.657 5.18472C115.249 4.67029 116.091 4.41308 117.182 4.41308C117.427 4.41308 117.681 4.43127 117.946 4.46764C118.216 4.49882 118.419 4.53259 118.554 4.56897H121.539ZM114.766 14.5301C114.766 14.925 114.943 15.229 115.296 15.442C115.655 15.655 116.156 15.7616 116.8 15.7616C117.798 15.7616 118.541 15.6187 119.03 15.3329C119.518 15.0471 119.762 14.6678 119.762 14.1949C119.762 13.8208 119.627 13.5532 119.357 13.3921C119.092 13.2362 118.596 13.1583 117.868 13.1583H116.481C115.956 13.1583 115.538 13.2804 115.226 13.5246C114.919 13.774 114.766 14.1092 114.766 14.5301ZM115.553 7.35932C115.553 7.89973 115.691 8.31542 115.966 8.60641C116.247 8.8974 116.647 9.04289 117.167 9.04289C118.227 9.04289 118.757 8.47651 118.757 7.34373C118.757 6.78255 118.624 6.35126 118.359 6.04988C118.099 5.74331 117.702 5.59002 117.167 5.59002C116.637 5.59002 116.234 5.74071 115.959 6.04209C115.688 6.34347 115.553 6.78255 115.553 7.35932ZM126.91 13.3453C125.569 13.3453 124.519 12.9556 123.761 12.1762C123.007 11.3916 122.631 10.3134 122.631 8.94156C122.631 7.5334 122.981 6.42661 123.683 5.6212C124.384 4.81579 125.348 4.41308 126.574 4.41308C127.712 4.41308 128.611 4.75863 129.271 5.44972C129.931 6.14082 130.261 7.09172 130.261 8.30243V9.29231H124.517C124.543 10.1289 124.769 10.7732 125.195 11.2253C125.621 11.6722 126.221 11.8956 126.995 11.8956C127.505 11.8956 127.977 11.8488 128.414 11.7553C128.856 11.6566 129.328 11.4955 129.832 11.2721V12.7608C129.386 12.9738 128.934 13.1245 128.476 13.2128C128.019 13.3012 127.497 13.3453 126.91 13.3453ZM126.574 5.80047C125.993 5.80047 125.525 5.98493 125.172 6.35386C124.823 6.72279 124.616 7.2606 124.548 7.96728H128.461C128.45 7.2554 128.279 6.71759 127.946 6.35386C127.614 5.98493 127.156 5.80047 126.574 5.80047ZM139.926 13.1895H138.087V7.88934C138.087 7.22422 137.952 6.72799 137.681 6.40063C137.416 6.07327 136.993 5.90959 136.411 5.90959C135.637 5.90959 135.07 6.13822 134.712 6.59548C134.353 7.05275 134.174 7.81919 134.174 8.8948V13.1895H132.342V4.56897H133.776L134.034 5.69914H134.127C134.387 5.28864 134.756 4.97167 135.234 4.74824C135.712 4.5248 136.242 4.41308 136.824 4.41308C138.892 4.41308 139.926 5.46531 139.926 7.56977V13.1895ZM145.951 13.3453C144.647 13.3453 143.654 12.966 142.974 12.2074C142.298 11.4435 141.96 10.3497 141.96 8.92598C141.96 7.47624 142.314 6.36165 143.02 5.58222C143.732 4.8028 144.759 4.41308 146.099 4.41308C147.009 4.41308 147.827 4.58196 148.554 4.91971L148.001 6.39283C147.227 6.09145 146.588 5.94076 146.084 5.94076C144.592 5.94076 143.847 6.93064 143.847 8.91039C143.847 9.87688 144.031 10.6043 144.4 11.0928C144.774 11.576 145.32 11.8177 146.037 11.8177C146.853 11.8177 147.624 11.615 148.352 11.2097V12.8075C148.024 12.9998 147.674 13.1375 147.299 13.2206C146.931 13.3038 146.481 13.3453 145.951 13.3453ZM154.143 13.3453C152.802 13.3453 151.753 12.9556 150.994 12.1762C150.241 11.3916 149.864 10.3134 149.864 8.94156C149.864 7.5334 150.215 6.42661 150.916 5.6212C151.618 4.81579 152.581 4.41308 153.808 4.41308C154.946 4.41308 155.845 4.75863 156.505 5.44972C157.164 6.14082 157.494 7.09172 157.494 8.30243V9.29231H151.75C151.776 10.1289 152.002 10.7732 152.428 11.2253C152.854 11.6722 153.454 11.8956 154.229 11.8956C154.738 11.8956 155.211 11.8488 155.647 11.7553C156.089 11.6566 156.562 11.4955 157.066 11.2721V12.7608C156.619 12.9738 156.167 13.1245 155.71 13.2128C155.252 13.3012 154.73 13.3453 154.143 13.3453ZM153.808 5.80047C153.226 5.80047 152.758 5.98493 152.405 6.35386C152.057 6.72279 151.849 7.2606 151.781 7.96728H155.694C155.684 7.2554 155.512 6.71759 155.18 6.35386C154.847 5.98493 154.39 5.80047 153.808 5.80047Z" fill="#3A68B8"/>
</svg>
